<svg width="638" xmlns="http://www.w3.org/2000/svg" height="455" fill="none"><g data-testid="Group"><g data-testid="Group"><path d="M553.627 290.791s-18.233 19.495-12.186 51.672c6.139 32.666 30.466 42.553 30.466 42.553l-231.54 57.751-18.279-94.225 207.167-60.791 24.372 3.04Z" style="fill: rgb(255, 255, 255); fill-opacity: 1;" class="fills" data-testid="Path"/><g data-testid="Path"><path d="M273.343 230c-12.186 0-198.883 46.827-231.54 60.791-21.326 9.118-15.232 112.462 0 115.502 61.588 12.289 115.77 27.355 307.704 48.632 12.112 1.343 78.146-15.181 228.493-63.83-.05.016-3.047-9.119-3.047-9.119s-124.909 33.435-194.98 48.633c-24.381 5.288-39.913-76.548-21.326-85.107 39.605-18.237 115.77-45.593 198.027-51.672 3.34-.247 2.478-9.104 2.478-9.104S282.483 230 273.343 230Z" style="fill: rgb(241, 255, 70); fill-opacity: 1;" class="fills"/><g class="strokes"><g class="inner-stroke-shape"><defs><clipPath id="b"><use href="#a"/></clipPath><path d="M273.343 230c-12.186 0-198.883 46.827-231.54 60.791-21.326 9.118-15.232 112.462 0 115.502 61.588 12.289 115.77 27.355 307.704 48.632 12.112 1.343 78.146-15.181 228.493-63.83-.05.016-3.047-9.119-3.047-9.119s-124.909 33.435-194.98 48.633c-24.381 5.288-39.913-76.548-21.326-85.107 39.605-18.237 115.77-45.593 198.027-51.672 3.34-.247 2.478-9.104 2.478-9.104S282.483 230 273.343 230Z" id="a" style="fill: none; stroke-width: 12.1793; stroke: rgb(0, 0, 0); stroke-opacity: 1;"/></defs><use href="#a" clip-path="url('#b')"/></g></g></g><g data-testid="Path"><path d="M57.036 394.135s41.345 9.774 124.91 24.316c91.105 15.853 137.095 21.276 137.095 21.276" style="fill: rgb(18, 215, 97); fill-opacity: 1;" class="fills"/><g class="strokes"><path d="M57.036 394.135s41.345 9.774 124.91 24.316c91.105 15.853 137.095 21.276 137.095 21.276" style="fill: none; stroke-width: 3.04482; stroke: rgb(0, 0, 0); stroke-opacity: 1;" class="stroke-shape"/></g></g><g data-testid="Path"><path d="M47.897 302.949s41.344 9.774 124.909 24.316c91.105 15.854 137.096 21.277 137.096 21.277" style="fill: rgb(18, 215, 97); fill-opacity: 1;" class="fills"/><g class="strokes"><path d="M47.897 302.949s41.344 9.774 124.909 24.316c91.105 15.854 137.096 21.277 137.096 21.277" style="fill: none; stroke-width: 3.04482; stroke: rgb(0, 0, 0); stroke-opacity: 1;" class="stroke-shape"/></g></g></g><g data-testid="Group"><g data-testid="Group"><path d="m12.183 231.287 9.138 76.15 402.056 94.425 194.935-134.023 12.184-39.598-24.367-36.551-185.798 124.885-408.148-85.288Z" style="fill: rgb(255, 255, 255); fill-opacity: 1;" class="fills" data-testid="Path"/><g data-testid="Path"><path d="M130.973 146S3.046 213.011 0 228.241c134.018 36.552 426.422 97.472 426.422 97.472s94.422-79.196 178.184-124.885c31.982 21.321 7.615 62.442 7.615 62.442l-188.844 132.5-408.148-91.379s-12.183 1.523-6.091 15.23C27.413 325.713 426.422 411 426.422 411l194.936-137.069s19.014-17.87 13.707-56.351c-2.815-20.408-25.89-31.982-25.89-31.982L130.973 146Z" style="fill: rgb(247, 116, 194); fill-opacity: 1;" class="fills"/><g class="strokes"><g class="inner-stroke-shape"><defs><clipPath id="d"><use href="#c"/></clipPath><path d="M130.973 146S3.046 213.011 0 228.241c134.018 36.552 426.422 97.472 426.422 97.472s94.422-79.196 178.184-124.885c31.982 21.321 7.615 62.442 7.615 62.442l-188.844 132.5-408.148-91.379s-12.183 1.523-6.091 15.23C27.413 325.713 426.422 411 426.422 411l194.936-137.069s19.014-17.87 13.707-56.351c-2.815-20.408-25.89-31.982-25.89-31.982L130.973 146Z" id="c" style="fill: none; stroke-width: 12.1793; stroke: rgb(0, 0, 0); stroke-opacity: 1;"/></defs><use href="#c" clip-path="url('#d')"/></g></g></g></g><g data-testid="Group"><path d="M613.627 60.791s-18.233 19.495-12.186 51.672c6.139 32.666 30.466 42.553 30.466 42.553l-231.54 57.751-18.279-94.225 207.167-60.791 24.372 3.04Z" style="fill: rgb(255, 255, 255); fill-opacity: 1;" class="fills" data-testid="Path"/><g data-testid="Path"><path d="M333.343 0c-12.186 0-198.883 46.827-231.54 60.791-21.326 9.118-15.232 112.462 0 115.502 61.588 12.289 115.77 27.355 307.704 48.632 12.112 1.343 78.146-15.181 228.493-63.83-.05.016-3.047-9.119-3.047-9.119s-124.909 33.435-194.98 48.633c-24.381 5.288-39.913-76.548-21.326-85.107 39.605-18.237 115.77-45.593 198.027-51.672 3.34-.247 2.478-9.104 2.478-9.104S342.483 0 333.343 0Z" style="fill: rgb(18, 215, 97); fill-opacity: 1;" class="fills"/><g class="strokes"><g class="inner-stroke-shape"><defs><clipPath id="f"><use href="#e"/></clipPath><path d="M333.343 0c-12.186 0-198.883 46.827-231.54 60.791-21.326 9.118-15.232 112.462 0 115.502 61.588 12.289 115.77 27.355 307.704 48.632 12.112 1.343 78.146-15.181 228.493-63.83-.05.016-3.047-9.119-3.047-9.119s-124.909 33.435-194.98 48.633c-24.381 5.288-39.913-76.548-21.326-85.107 39.605-18.237 115.77-45.593 198.027-51.672 3.34-.247 2.478-9.104 2.478-9.104S342.483 0 333.343 0Z" id="e" style="fill: none; stroke-width: 12.1793; stroke: rgb(0, 0, 0); stroke-opacity: 1;"/></defs><use href="#e" clip-path="url('#f')"/></g></g></g><g data-testid="Path"><path d="M117.036 164.135s41.345 9.774 124.91 24.316c91.105 15.853 137.095 21.276 137.095 21.276" style="fill: rgb(18, 215, 97); fill-opacity: 1;" class="fills"/><g class="strokes"><path d="M117.036 164.135s41.345 9.774 124.91 24.316c91.105 15.853 137.095 21.276 137.095 21.276" style="fill: none; stroke-width: 3.04482; stroke: rgb(0, 0, 0); stroke-opacity: 1;" class="stroke-shape"/></g></g><g data-testid="Path"><path d="M107.897 72.949s41.344 9.774 124.909 24.316c91.105 15.854 137.096 21.277 137.096 21.277" style="fill: rgb(18, 215, 97); fill-opacity: 1;" class="fills"/><g class="strokes"><path d="M107.897 72.949s41.344 9.774 124.909 24.316c91.105 15.854 137.096 21.277 137.096 21.277" style="fill: none; stroke-width: 3.04482; stroke: rgb(0, 0, 0); stroke-opacity: 1;" class="stroke-shape"/></g></g></g></g></g></svg>