<svg width="47.94" xmlns="http://www.w3.org/2000/svg" height="47.94" fill="none"><g data-testid="star empty"><g class="fills"><rect rx="0" ry="0" width="47.94" height="47.94" class="frame-background"/></g><g data-testid="svg-path" class="frame-children"><path d="m26.284 2.486 5.407 10.956a2.582 2.582 0 0 0 1.945 1.412l12.091 1.757c2.118.308 2.963 2.91 1.43 4.403l-8.749 8.528a2.581 2.581 0 0 0-.741 2.285l2.064 12.042c.363 2.109-1.851 3.717-3.745 2.722l-10.814-5.685a2.585 2.585 0 0 0-2.403 0l-10.814 5.685c-1.894.996-4.108-.613-3.746-2.722l2.065-12.042a2.582 2.582 0 0 0-.743-2.285L.782 21.014c-1.531-1.494-.686-4.096 1.431-4.403l12.092-1.757a2.58 2.58 0 0 0 1.943-1.412l5.408-10.956c.946-1.919 3.681-1.919 4.628 0Z" class="fills"/><g class="strokes"><g class="inner-stroke-shape"><defs><clipPath id="b"><use href="#a"/></clipPath><path d="m26.284 2.486 5.407 10.956a2.582 2.582 0 0 0 1.945 1.412l12.091 1.757c2.118.308 2.963 2.91 1.43 4.403l-8.749 8.528a2.581 2.581 0 0 0-.741 2.285l2.064 12.042c.363 2.109-1.851 3.717-3.745 2.722l-10.814-5.685a2.585 2.585 0 0 0-2.403 0l-10.814 5.685c-1.894.996-4.108-.613-3.746-2.722l2.065-12.042a2.582 2.582 0 0 0-.743-2.285L.782 21.014c-1.531-1.494-.686-4.096 1.431-4.403l12.092-1.757a2.58 2.58 0 0 0 1.943-1.412l5.408-10.956c.946-1.919 3.681-1.919 4.628 0Z" id="a" style="fill: none; stroke-width: 6; stroke: rgb(18, 215, 97); stroke-opacity: 1;"/></defs><use href="#a" clip-path="url('#b')"/></g></g></g></g></svg>