<svg width="47.94" xmlns="http://www.w3.org/2000/svg" height="47.94" fill="none"><g data-testid="star"><g class="fills"><rect rx="0" ry="0" width="47.94" height="47.94" class="frame-background"/></g><g class="frame-children"><path d="m26.285 2.486 5.407 10.956a2.58 2.58 0 0 0 1.944 1.412l12.091 1.757c2.117.308 2.963 2.91 1.431 4.403l-8.749 8.528a2.582 2.582 0 0 0-.743 2.285l2.066 12.042c.361 2.109-1.853 3.717-3.746 2.722l-10.814-5.685a2.585 2.585 0 0 0-2.403 0l-10.815 5.685c-1.894.996-4.108-.613-3.745-2.722l2.064-12.042a2.581 2.581 0 0 0-.741-2.285L.783 21.014c-1.532-1.494-.688-4.096 1.431-4.403l12.091-1.757a2.58 2.58 0 0 0 1.944-1.412l5.407-10.956c.946-1.919 3.682-1.919 4.629 0Z" style="fill: rgb(18, 215, 97); fill-opacity: 1;" class="fills" data-testid="svg-path"/></g></g></svg>