<svg width="1339" xmlns="http://www.w3.org/2000/svg" height="162.11" fill="none"><g data-testid="Board"><g class="fills"><rect rx="0" ry="0" width="1339" height="162.11" class="frame-background"/></g><g class="frame-children"><g data-testid="Path" style="opacity: 1;"><path d="M0 65.615C81 139.11 85-19.89 154 2.11" class="fills"/><g class="strokes"><path d="M0 65.615C81 139.11 85-19.89 154 2.11" style="fill: none; stroke-width: 6; stroke: rgb(18, 215, 97); stroke-opacity: 1; stroke-dasharray: 16, 16; stroke-linecap: round;" class="stroke-shape"/></g></g><g data-testid="Path" style="opacity: 1;"><path d="M187 25.11c89 155 173-50 276 121m0 0" class="fills"/><g class="strokes"><path d="M187 25.11c89 155 173-50 276 121m0 0" style="fill: none; stroke-width: 6; stroke: rgb(18, 215, 97); stroke-opacity: 1; stroke-dasharray: 16, 16; stroke-linecap: round;" class="stroke-shape"/></g></g><g data-testid="Path" style="opacity: 1;"><path d="M1139 35.036s36-25.505 106 53.495c40.822 46.07 72.332-53.495 72.332-53.495m0 0" class="fills"/><g class="strokes"><path d="M1139 35.036s36-25.505 106 53.495c40.822 46.07 72.332-53.495 72.332-53.495m0 0" style="fill: none; stroke-width: 6; stroke: rgb(18, 215, 97); stroke-opacity: 1; stroke-dasharray: 16, 16; stroke-linecap: round;" class="stroke-shape"/></g></g><circle cx="171" cy="12.11" style="fill: rgb(18, 215, 97); fill-opacity: 1;" r="8" class="fills" data-testid="Ellipse"/><circle cx="477" cy="154.11" style="fill: rgb(18, 215, 97); fill-opacity: 1;" r="8" class="fills" data-testid="Ellipse"/><g data-testid="Path" style="opacity: 1;"><path d="M493 154.278c123 6.99 13-116.168 113-111.168m0 0" class="fills"/><g class="strokes"><path d="M493 154.278c123 6.99 13-116.168 113-111.168m0 0" style="fill: none; stroke-width: 6; stroke: rgb(18, 215, 97); stroke-opacity: 1; stroke-dasharray: 16, 16; stroke-linecap: round;" class="stroke-shape"/></g></g><path d="M609 33.11c4.415 0 8 3.584 8 8 0 4.415-3.585 8-8 8s-8-3.585-8-8c0-4.416 3.585-8 8-8Z" style="fill: rgb(18, 215, 97); fill-opacity: 1;" class="fills" data-testid="Ellipse"/><g data-testid="Path" style="opacity: 1;"><path d="M626 40.11s72.51-12.228 139 76c52 69 138-55 138-55m0 0" class="fills"/><g class="strokes"><path d="M626 40.11s72.51-12.228 139 76c52 69 138-55 138-55m0 0" style="fill: none; stroke-width: 6; stroke: rgb(18, 215, 97); stroke-opacity: 1; stroke-dasharray: 16, 16; stroke-linecap: round;" class="stroke-shape"/></g></g><circle cx="911" cy="50.11" style="fill: rgb(18, 215, 97); fill-opacity: 1;" r="8" class="fills" data-testid="Ellipse"/><g data-testid="Path" style="opacity: 1;"><path d="M924 38.12c94-82.01 126.938 27.797 183.332 9m0 0" class="fills"/><g class="strokes"><path d="M924 38.12c94-82.01 126.938 27.797 183.332 9m0 0" style="fill: none; stroke-width: 6; stroke: rgb(18, 215, 97); stroke-opacity: 1; stroke-dasharray: 16, 16; stroke-linecap: round;" class="stroke-shape"/></g></g><path d="M1123 33.11c4.415 0 8 3.584 8 8 0 4.415-3.585 8-8 8s-8-3.585-8-8c0-4.416 3.585-8 8-8Z" style="fill: rgb(18, 215, 97); fill-opacity: 1;" class="fills" data-testid="Ellipse"/><g data-testid="Ellipse"><path d="M1327 2.11c6.623 0 12 5.377 12 12s-5.377 12-12 12-12-5.377-12-12 5.377-12 12-12Z" class="fills"/><g class="strokes"><g class="inner-stroke-shape"><defs><clipPath id="b"><use href="#a"/></clipPath><path d="M1327 2.11c6.623 0 12 5.377 12 12s-5.377 12-12 12-12-5.377-12-12 5.377-12 12-12Z" id="a" style="fill: none; stroke-width: 8; stroke: rgb(18, 215, 97); stroke-opacity: 1;"/></defs><use href="#a" clip-path="url('#b')"/></g></g></g></g></g></svg>