<svg width="525" xmlns="http://www.w3.org/2000/svg" height="993" viewBox="1820 1662 525 993" fill="none"><g data-testid="Path"><path d="m2286 2586-335-254 201 67-332-334 394 233-282-411 413 411-292-532 285 339-248-443 246 292-13 701-218-58 181-11Zm-134-187" style="fill: rgb(241, 255, 70); fill-opacity: 1;" class="fills"/><g class="strokes"><g class="inner-stroke-shape"><defs><clipPath id="b"><use href="#a"/></clipPath><path d="m2286 2586-335-254 201 67-332-334 394 233-282-411 413 411-292-532 285 339-248-443 246 292-13 701-218-58 181-11Zm-134-187" id="a" style="fill: none; stroke-width: 4; stroke: rgb(0, 0, 0); stroke-opacity: 1;"/></defs><use href="#a" clip-path="url('#b')"/></g></g></g></svg>